<svg width="800px" height="800px" viewBox="0 0 256 256" xmlns="http://www.w3.org/2000/svg" preserveAspectRatio="xMidYMid">
  <defs>
    <linearGradient x1="32.764%" y1="20.308%" x2="83.787%" y2="82.866%" id="a">
      <stop stop-color="#387EB8" offset="0%"/>
      <stop stop-color="#366994" offset="100%"/>
    </linearGradient>
    <linearGradient x1="64.083%" y1="31.653%" x2="49.999%" y2="98.434%" id="b">
      <stop stop-color="#FFE052" offset="0%"/>
      <stop stop-color="#FFC331" offset="100%"/>
    </linearGradient>
  </defs>
  <path d="M103.786 129.132s-9.776 5.69 6.998 7.623c20.327 2.307 30.703 1.972 53.063-2.25 0 0 5.897 3.7 14.127 6.905-50.176 21.482-113.653-1.25-74.188-12.278" fill="a"/>
  <path d="M97.1 109.166s-10.959 8.086 5.778 9.804c21.645 2.228 38.785 2.404 68.47-3.282 0 0 4.099 4.17 10.512 6.454-60.385 17.686-127.552 1.39-84.76-12.976" fill="a"/>
  <path d="M138.158 74.508c12.318 14.236-3.234 27.042-3.234 27.042s31.324-16.223 16.974-36.585c-13.468-18.935-23.86-28.355 32.196-60.658 0-.001-87.997 22.093-45.936 70.201" fill="a"/>
  <path d="M190.438 162.196s7.242 5.967-7.989 10.591c-29.027 8.801-120.787 11.467-146.208.352-9.162-3.982 8.005-9.512 13.398-10.679 5.632-1.219 8.847-.998 8.847-.998-10.166-7.149-65.712 14.032-28.191 20.109 102.214 16.535 186.524-7.455 159.143-19.375" fill="b"/>
  <path d="M100.847 144.331s-46.569 11.073-16.498 15.07c12.7 1.696 38.046 1.303 61.564-.646 19.3-1.627 38.663-5.083 38.663-5.083s-6.808 2.916-11.762 6.282c-47.51 12.485-139.203 6.681-113.025-5.87 22.357-10.581 41.058-9.753 41.058-9.753" fill="b"/>
</svg>